# Blender v2.93.5 OBJ File: ''
# www.blender.org
mtllib holeSquare.mtl
o holeSquare
v 0.499950 0.000000 -0.499950
v -0.499950 0.000000 -0.399960
v -0.499950 0.000000 -0.499950
v 0.499950 -0.000000 0.499950
v -0.499950 -0.000000 0.399960
v -0.499950 -0.000000 0.499950
v 0.499950 0.146652 -0.499950
v -0.499950 0.146652 -0.499950
v -0.499950 0.146652 0.499950
v 0.399960 0.146652 0.399960
v -0.499950 0.146652 0.399960
v 0.499950 0.146652 0.499950
v 0.399960 0.146652 -0.399960
v -0.499950 0.146652 -0.399960
v -0.499950 0.063327 0.399960
v 0.399960 0.063327 0.399960
v -0.499950 0.063327 -0.399960
v 0.399960 0.063327 -0.399960
v 0.047136 0.063327 0.047136
v 0.033330 -0.001444 0.057729
v 0.033330 0.063327 0.057729
v 0.047136 -0.001444 0.047136
v 0.057729 -0.001444 0.033330
v 0.057729 0.063327 0.033330
v 0.064389 -0.001444 0.017253
v 0.064389 0.063327 0.017253
v 0.066660 -0.001444 -0.000000
v 0.066660 0.063327 0.000000
v 0.064389 -0.001444 -0.017253
v 0.064389 0.063327 -0.017253
v 0.057729 -0.001444 -0.033330
v 0.057729 0.063327 -0.033330
v 0.047136 -0.001444 -0.047136
v 0.047136 0.063327 -0.047136
v 0.033330 0.063327 -0.057729
v 0.033330 -0.001444 -0.057729
v 0.017253 0.063327 -0.064389
v 0.017253 -0.001444 -0.064389
v -0.000000 0.063327 -0.066660
v -0.000000 -0.001444 -0.066660
v -0.017253 0.063327 -0.064389
v -0.017253 -0.001444 -0.064389
v -0.033330 0.063327 -0.057729
v -0.033330 -0.001444 -0.057729
v -0.047136 0.063327 -0.047136
v -0.047136 -0.001444 -0.047136
v -0.057729 -0.001444 -0.033330
v -0.057729 0.063327 -0.033330
v -0.064389 -0.001444 -0.017253
v -0.064389 0.063327 -0.017253
v -0.066660 -0.001444 0.000000
v -0.066660 0.063327 0.000000
v -0.064389 -0.001444 0.017253
v -0.064389 0.063327 0.017253
v -0.057729 -0.001444 0.033330
v -0.057729 0.063327 0.033330
v -0.047136 -0.001444 0.047136
v -0.047136 0.063327 0.047136
v -0.033330 0.063327 0.057729
v -0.033330 -0.001444 0.057729
v -0.017253 0.063327 0.064389
v -0.017253 -0.001444 0.064389
v 0.000000 0.063327 0.066660
v 0.000000 -0.001444 0.066660
v 0.017253 0.063327 0.064389
v 0.017253 -0.001444 0.064389
vt 19.683069 19.683069
vt 15.746460 -19.683069
vt 19.683069 -19.683069
vt -19.683069 19.683069
vt -15.746460 -19.683069
vt -19.683069 -19.683069
vt -19.683069 5.773701
vt 19.683069 -0.000000
vt 19.683069 5.773701
vt -19.683069 -0.000000
vt 19.683069 -19.683069
vt 15.746460 15.746460
vt 15.746460 -19.683069
vt 19.683069 19.683069
vt -15.746460 15.746460
vt -19.683069 19.683069
vt -15.746460 -19.683069
vt -19.683069 -19.683069
vt 19.683069 0.000000
vt -19.683069 5.773701
vt -19.683069 0.000000
vt 19.683069 5.773701
vt 19.683069 5.773701
vt 15.746460 -0.000000
vt 19.683069 -0.000000
vt 15.746460 2.493189
vt 15.746460 5.773701
vt -15.746460 5.773701
vt 19.683069 2.493189
vt 19.683069 5.773701
vt -15.746460 2.493189
vt 19.683069 5.773701
vt -19.683069 0.000000
vt 19.683069 0.000000
vt -19.683069 5.773701
vt -15.746460 2.493189
vt -19.683069 0.000000
vt -15.746460 0.000000
vt -19.683069 5.773701
vt -15.746460 5.773701
vt 15.746460 2.493189
vt -19.683069 5.773701
vt -19.683069 2.493189
vt 15.746460 5.773701
vt 15.746460 5.773701
vt -15.746460 2.493189
vt 15.746460 2.493189
vt -15.746460 5.773701
vt -0.342554 2.493189
vt 0.342554 1.246594
vt 0.342554 2.493189
vt -0.342554 1.246594
vt 0.342554 2.493189
vt -0.342554 1.246594
vt 0.342554 1.246594
vt -0.342554 2.493189
vt 0.342554 2.493189
vt -0.342554 1.246594
vt 0.342554 1.246594
vt -0.342554 2.493189
vt 0.342554 2.493189
vt -0.342554 1.246594
vt 0.342554 1.246594
vt -0.342554 2.493189
vt 0.342554 2.493189
vt -0.342554 1.246594
vt 0.342554 1.246594
vt -0.342554 2.493189
vt 0.342554 2.493189
vt -0.342554 1.246594
vt 0.342554 1.246594
vt -0.342554 2.493189
vt 0.342554 2.493189
vt -0.342554 1.246594
vt 0.342554 1.246594
vt -0.342554 2.493189
vt 0.342554 1.246594
vt -0.342554 2.493189
vt -0.342554 1.246594
vt 0.342554 2.493189
vt 0.342554 1.246594
vt -0.342554 2.493189
vt -0.342554 1.246594
vt 0.342554 2.493189
vt 0.342554 1.246594
vt -0.342554 2.493189
vt -0.342554 1.246594
vt 0.342554 2.493189
vt 0.342554 1.246594
vt -0.342554 2.493189
vt -0.342554 1.246594
vt 0.342554 2.493189
vt 0.342554 1.246594
vt -0.342554 2.493189
vt -0.342554 1.246594
vt 0.342554 2.493189
vt 0.342554 1.246594
vt -0.342554 2.493189
vt -0.342554 1.246594
vt 0.342554 2.493189
vt 0.342554 2.493189
vt -0.342554 1.246594
vt 0.342554 1.246594
vt -0.342554 2.493189
vt 0.342554 2.493189
vt -0.342554 1.246594
vt 0.342554 1.246594
vt -0.342554 2.493189
vt 0.342554 2.493189
vt -0.342554 1.246594
vt 0.342554 1.246594
vt -0.342554 2.493189
vt 0.342554 2.493189
vt -0.342554 1.246594
vt 0.342554 1.246594
vt -0.342554 2.493189
vt 0.342554 2.493189
vt -0.342554 1.246594
vt 0.342554 1.246594
vt -0.342554 2.493189
vt 0.342554 2.493189
vt -0.342554 1.246594
vt 0.342554 1.246594
vt -0.342554 2.493189
vt -0.342554 2.493189
vt 0.342554 1.246594
vt 0.342554 2.493189
vt -0.342554 1.246594
vt -0.342554 2.493189
vt 0.342554 1.246594
vt 0.342554 2.493189
vt -0.342554 1.246594
vt -0.342554 2.493189
vt 0.342554 1.246594
vt 0.342554 2.493189
vt -0.342554 1.246594
vt -0.342554 2.493189
vt 0.342554 1.246594
vt 0.342554 2.493189
vt -0.342554 1.246594
vt -0.342554 2.493189
vt 0.342554 1.246594
vt 0.342554 2.493189
vt -0.342554 1.246594
vt -15.746460 -19.683069
vt -1.855738 -1.855738
vt -15.746460 15.746460
vt 15.746460 -19.683069
vt -2.272805 -1.312205
vt -2.534985 -0.679247
vt -2.624409 0.000000
vt -1.312205 -2.272805
vt -0.679247 -2.534985
vt -0.000000 -2.624409
vt 0.679247 -2.534985
vt 1.312205 -2.272805
vt 1.855738 -1.855738
vt 2.272805 -1.312205
vt 2.534985 -0.679247
vt 2.624409 0.000000
vt -2.534985 0.679247
vt 15.746460 15.746460
vt 2.534985 0.679247
vt 2.272805 1.312205
vt 1.855738 1.855738
vt 1.312205 2.272805
vt 0.679247 2.534985
vt -0.000000 2.624409
vt -0.679247 2.534985
vt -1.312205 2.272805
vt -1.855738 1.855738
vt -2.272805 1.312205
vn 0.0000 -1.0000 -0.0000
vn -0.0000 0.0000 -1.0000
vn 0.0000 1.0000 0.0000
vn 0.0000 -0.0000 1.0000
vn -1.0000 0.0000 0.0000
vn 1.0000 0.0000 -0.0000
vn -0.7071 0.0000 -0.7071
vn -0.5000 0.0000 -0.8660
vn -0.8660 0.0000 -0.5000
vn -0.9659 0.0000 -0.2588
vn -0.9659 0.0000 0.2588
vn -0.8660 -0.0000 0.5000
vn -0.7071 -0.0000 0.7071
vn -0.5000 -0.0000 0.8660
vn -0.2588 -0.0000 0.9659
vn 0.2588 0.0000 0.9659
vn 0.5000 -0.0000 0.8660
vn 0.7071 -0.0000 0.7071
vn 0.8660 -0.0000 0.5000
vn 0.9659 0.0000 0.2588
vn 0.9659 0.0000 -0.2588
vn 0.8660 0.0000 -0.5000
vn 0.7071 0.0000 -0.7071
vn 0.5000 0.0000 -0.8660
vn 0.2588 0.0000 -0.9659
vn -0.2588 0.0000 -0.9659
usemtl border.003
s 1
f 1/1/1 2/2/1 3/3/1
f 2/2/1 1/1/1 4/4/1
f 2/2/1 4/4/1 5/5/1
f 5/5/1 4/4/1 6/6/1
f 7/7/2 3/8/2 8/9/2
f 3/8/2 7/7/2 1/10/2
f 9/11/3 10/12/3 11/13/3
f 12/14/3 10/12/3 9/11/3
f 12/14/3 13/15/3 10/12/3
f 7/16/3 13/15/3 12/14/3
f 7/16/3 14/17/3 13/15/3
f 14/17/3 7/16/3 8/18/3
f 4/19/4 9/20/4 6/21/4
f 9/20/4 4/19/4 12/22/4
f 9/23/5 5/24/5 6/25/5
f 5/24/5 9/23/5 15/26/5
f 15/26/5 9/23/5 11/27/5
f 10/28/2 15/29/2 11/30/2
f 15/29/2 10/28/2 16/31/2
f 7/32/6 4/33/6 1/34/6
f 4/33/6 7/32/6 12/35/6
f 17/36/5 3/37/5 2/38/5
f 3/37/5 17/36/5 8/39/5
f 8/39/5 17/36/5 14/40/5
f 18/41/4 14/42/4 17/43/4
f 14/42/4 18/41/4 13/44/4
f 10/45/5 18/46/5 16/47/5
f 18/46/5 10/45/5 13/48/5
f 19/49/7 20/50/8 21/51/8
f 20/50/8 19/49/7 22/52/7
f 19/53/7 23/54/9 22/55/7
f 23/54/9 19/53/7 24/56/9
f 24/57/9 25/58/10 23/59/9
f 25/58/10 24/57/9 26/60/10
f 26/61/10 27/62/5 25/63/10
f 27/62/5 26/61/10 28/64/5
f 28/65/5 29/66/11 27/67/5
f 29/66/11 28/65/5 30/68/11
f 30/69/11 31/70/12 29/71/11
f 31/70/12 30/69/11 32/72/12
f 32/73/12 33/74/13 31/75/12
f 33/74/13 32/73/12 34/76/13
f 33/77/13 35/78/14 36/79/14
f 35/78/14 33/77/13 34/80/13
f 36/81/14 37/82/15 38/83/15
f 37/82/15 36/81/14 35/84/14
f 38/85/15 39/86/4 40/87/4
f 39/86/4 38/85/15 37/88/15
f 40/89/4 41/90/16 42/91/16
f 41/90/16 40/89/4 39/92/4
f 42/93/16 43/94/17 44/95/17
f 43/94/17 42/93/16 41/96/16
f 44/97/17 45/98/18 46/99/18
f 45/98/18 44/97/17 43/100/17
f 45/101/18 47/102/19 46/103/18
f 47/102/19 45/101/18 48/104/19
f 48/105/19 49/106/20 47/107/19
f 49/106/20 48/105/19 50/108/20
f 50/109/20 51/110/6 49/111/20
f 51/110/6 50/109/20 52/112/6
f 52/113/6 53/114/21 51/115/6
f 53/114/21 52/113/6 54/116/21
f 54/117/21 55/118/22 53/119/21
f 55/118/22 54/117/21 56/120/22
f 56/121/22 57/122/23 55/123/22
f 57/122/23 56/121/22 58/124/23
f 59/125/24 57/126/23 58/127/23
f 57/126/23 59/125/24 60/128/24
f 61/129/25 60/130/24 59/131/24
f 60/130/24 61/129/25 62/132/25
f 63/133/2 62/134/25 61/135/25
f 62/134/25 63/133/2 64/136/2
f 65/137/26 64/138/2 63/139/2
f 64/138/2 65/137/26 66/140/26
f 21/141/8 66/142/26 65/143/26
f 66/142/26 21/141/8 20/144/8
usemtl green.003
f 17/145/3 45/146/3 18/147/3
f 45/146/3 17/145/3 15/148/3
f 18/147/3 45/146/3 43/149/3
f 18/147/3 43/149/3 41/150/3
f 18/147/3 41/150/3 39/151/3
f 45/146/3 15/148/3 48/152/3
f 48/152/3 15/148/3 50/153/3
f 50/153/3 15/148/3 52/154/3
f 52/154/3 15/148/3 54/155/3
f 54/155/3 15/148/3 56/156/3
f 56/156/3 15/148/3 58/157/3
f 58/157/3 15/148/3 59/158/3
f 59/158/3 15/148/3 61/159/3
f 61/159/3 15/148/3 63/160/3
f 37/161/3 18/147/3 39/151/3
f 16/162/3 63/160/3 15/148/3
f 16/162/3 65/163/3 63/160/3
f 16/162/3 21/164/3 65/163/3
f 16/162/3 19/165/3 21/164/3
f 16/162/3 24/166/3 19/165/3
f 16/162/3 26/167/3 24/166/3
f 16/162/3 28/168/3 26/167/3
f 16/162/3 30/169/3 28/168/3
f 16/162/3 32/170/3 30/169/3
f 16/162/3 34/171/3 32/170/3
f 18/147/3 34/171/3 16/162/3
f 34/171/3 18/147/3 35/172/3
f 35/172/3 18/147/3 37/161/3
f 15/26/5 2/38/5 5/24/5
f 2/38/5 15/26/5 17/36/5
